<?xml version="1.0" encoding="UTF-8" standalone="no"?>
<!DOCTYPE svg PUBLIC "-//W3C//DTD SVG 20010904//EN" "http://www.w3.org/TR/2001/REC-SVG-20010904/DTD/svg10.dtd">
<svg version="1.0" xmlns="http://www.w3.org/2000/svg" width="188.000000pt" height="230.000000pt" viewBox="0 0 188.000000 230.000000" preserveAspectRatio="xMidYMid meet">

<g transform="translate(0.000000,230.000000) scale(0.100000,-0.100000)" fill="#000000" stroke="none">
<path d="M637 2293 c-4 -3 -7 -44 -7 -90 l0 -83 -105 0 -105 0 0 -334 0 -334 -31 -11 c-136 -47 -218 46 -219 249 0 41 8 114 18 161 19 94 18 109 -4 109 -9 0 -35 -41 -64 -102 -131 -274 -120 -528 31 -709 42 -51 128 -102 162 -97 20 3 22 9 25 86 3 82 3 82 -23 82 -24 0 -25 -2 -25 -60 l0 -61 -28 15 c-77 40 -162 176 -184 296 -14 73 -1 200 30 295 l20 60 1 -91 c1 -108 21 -182 61 -228 42 -48 78 -60 160 -54 l70 5 0 -316 0 -317 60 -35 60 -34 0 -147 c0 -141 1 -148 20 -148 19 0 20 7 20 148 l0 147 100 100 100 99 40 -39 40 -39 -90 -91 -90 -90 0 -203 0 -202 25 0 25 0 0 198 0 197 83 83 c73 73 85 81 97 68 16 -20 34 -20 50 0 12 13 24 5 97 -68 l83 -83 0 -197 0 -198 25 0 25 0 0 202 0 203 -90 90 -90 91 40 39 40 39 100 -99 100 -100 0 -147 c0 -141 1 -148 20 -148 19 0 20 7 20 148 l0 147 60 34 60 35 0 317 0 317 64 -5 c81 -7 107 0 150 37 50 45 68 98 75 225 l6 110 24 -85 c49 -173 29 -339 -57 -461 -35 -50 -112 -119 -133 -119 -5 0 -9 27 -9 60 0 53 -2 60 -20 60 -18 0 -20 -7 -20 -85 0 -84 0 -85 25 -85 102 0 241 166 276 330 18 84 6 239 -26 340 -34 106 -101 240 -120 240 -24 0 -25 -14 -5 -111 60 -290 -26 -468 -199 -408 l-31 11 0 334 0 334 -100 0 -99 0 -3 88 -3 87 -301 3 c-165 1 -303 -1 -307 -5z m563 -103 l0 -70 -265 0 -265 0 0 70 0 70 265 0 265 0 0 -70z m210 -190 l0 -80 -475 0 -475 0 0 80 0 80 475 0 475 0 0 -80z m-630 -160 l0 -40 155 0 155 0 0 40 0 40 160 0 160 0 0 -210 0 -210 -194 0 -195 0 -15 53 c-19 64 -51 117 -70 117 -25 0 -64 -70 -80 -142 l-6 -28 -195 0 -195 0 0 210 0 210 160 0 160 0 0 -40z m270 20 c0 -19 -7 -20 -115 -20 -108 0 -115 1 -115 20 0 19 7 20 115 20 108 0 115 -1 115 -20z m-78 -408 c0 -26 -7 -65 -16 -87 -17 -38 -18 -39 -32 -20 -37 50 -39 118 -7 195 l15 35 19 -38 c11 -21 21 -59 21 -85z m-113 -74 c7 -24 18 -49 23 -55 8 -10 -34 -13 -206 -13 l-216 0 0 55 0 55 193 0 194 0 12 -42z m551 -13 l0 -55 -214 0 -214 0 21 55 20 55 193 0 194 0 0 -55z m-870 -356 l0 -260 -40 22 -40 23 0 238 0 238 40 0 40 0 0 -261z m318 212 l-33 -50 -62 0 c-60 -1 -63 -2 -63 -26 0 -24 2 -25 65 -25 l65 0 0 -53 0 -52 -125 -125 -125 -125 0 253 0 252 155 0 155 0 -32 -49z m432 -203 l0 -253 -130 130 -130 130 0 47 0 48 70 0 c68 0 70 1 70 25 0 24 -2 25 -70 25 -50 0 -70 4 -70 13 0 7 -11 29 -25 50 l-26 37 156 0 155 0 0 -252z m120 14 l0 -238 -40 -23 -40 -22 0 260 0 261 40 0 40 0 0 -238z m-446 178 c23 -35 26 -49 26 -128 0 -87 0 -88 35 -122 l34 -33 -62 -57 -62 -57 -62 56 -63 56 35 35 c35 35 35 37 35 125 0 80 3 93 26 127 15 21 28 38 29 38 1 0 14 -18 29 -40z"/>
<path d="M540 2030 c0 -18 7 -20 75 -20 68 0 75 2 75 20 0 18 -7 20 -75 20 -68 0 -75 -2 -75 -20z"/>
<path d="M1180 2030 c0 -18 7 -20 75 -20 68 0 75 2 75 20 0 18 -7 20 -75 20 -68 0 -75 -2 -75 -20z"/>
<path d="M540 1970 c0 -18 7 -20 75 -20 68 0 75 2 75 20 0 18 -7 20 -75 20 -68 0 -75 -2 -75 -20z"/>
<path d="M1180 1970 c0 -18 7 -20 75 -20 68 0 75 2 75 20 0 18 -7 20 -75 20 -68 0 -75 -2 -75 -20z"/>
<path d="M606 1810 c-116 -35 -131 -212 -22 -264 67 -32 151 -10 188 48 30 48 21 136 -17 176 -16 17 -45 35 -64 40 -41 11 -46 11 -85 0z m100 -58 c28 -22 44 -54 44 -85 0 -30 -48 -84 -82 -92 -57 -14 -129 60 -115 117 4 14 19 37 33 51 32 32 87 36 120 9z"/>
<path d="M1162 1801 c-76 -36 -104 -143 -54 -211 74 -101 235 -65 258 57 22 117 -95 204 -204 154z m120 -51 c41 -32 53 -72 33 -113 -19 -41 -72 -71 -109 -61 -44 11 -76 52 -76 96 0 80 91 127 152 78z"/>
<path d="M867 632 l-57 -58 0 -267 c0 -260 0 -267 20 -267 19 0 20 7 20 225 l0 225 85 0 85 0 0 -225 c0 -218 1 -225 20 -225 20 0 20 7 20 267 l0 267 -57 58 c-32 32 -62 58 -68 58 -6 0 -36 -26 -68 -58z m153 -89 c0 -10 -22 -13 -85 -13 -60 0 -85 4 -85 12 0 7 19 32 42 55 l42 43 43 -42 c24 -23 43 -48 43 -55z"/>
</g>
</svg>